<svg xmlns="http://www.w3.org/2000/svg" style="display: none;">
  <!-- 首页 -->
  <symbol id="home" viewBox="0 0 24 24" fill="none" stroke="currentColor" stroke-width="1.5">
    <path d="M3 9l9-7 9 7v11a2 2 0 0 1-2 2H5a2 2 0 0 1-2-2z"/>
    <polyline points="9,22 9,12 15,12 15,22"/>
  </symbol>
  
  <!-- 用户 -->
  <symbol id="user" viewBox="0 0 24 24" fill="none" stroke="currentColor" stroke-width="1.5">
    <path d="M20 21v-2a4 4 0 0 0-4-4H8a4 4 0 0 0-4 4v2"/>
    <circle cx="12" cy="7" r="4"/>
  </symbol>
  
  <!-- 用户组 -->
  <symbol id="users" viewBox="0 0 24 24" fill="none" stroke="currentColor" stroke-width="1.5">
    <path d="M17 21v-2a4 4 0 0 0-4-4H5a4 4 0 0 0-4 4v2"/>
    <circle cx="9" cy="7" r="4"/>
    <path d="M23 21v-2a4 4 0 0 0-3-3.87"/>
    <path d="M16 3.13a4 4 0 0 1 0 7.75"/>
  </symbol>
  
  <!-- 聊天 -->
  <symbol id="message-circle" viewBox="0 0 24 24" fill="none" stroke="currentColor" stroke-width="1.5">
    <path d="M21 15a2 2 0 0 1-2 2H7l-4 4V5a2 2 0 0 1 2-2h14a2 2 0 0 1 2 2z"/>
  </symbol>
  
  <!-- 指南针 -->
  <symbol id="compass" viewBox="0 0 24 24" fill="none" stroke="currentColor" stroke-width="1.5">
    <circle cx="12" cy="12" r="10"/>
    <polygon points="16.24,7.76 14.12,14.12 7.76,16.24 9.88,9.88"/>
  </symbol>
  
  <!-- 分支/族谱 -->
  <symbol id="git-branch" viewBox="0 0 24 24" fill="none" stroke="currentColor" stroke-width="1.5">
    <line x1="6" y1="3" x2="6" y2="15"/>
    <circle cx="18" cy="6" r="3"/>
    <circle cx="6" cy="18" r="3"/>
    <path d="M18 9a9 9 0 0 1-9 9"/>
  </symbol>
  
  <!-- 加号 -->
  <symbol id="plus" viewBox="0 0 24 24" fill="none" stroke="currentColor" stroke-width="1.5">
    <line x1="12" y1="5" x2="12" y2="19"/>
    <line x1="5" y1="12" x2="19" y2="12"/>
  </symbol>
  
  <!-- 搜索 -->
  <symbol id="search" viewBox="0 0 24 24" fill="none" stroke="currentColor" stroke-width="1.5">
    <circle cx="11" cy="11" r="8"/>
    <path d="M21 21l-4.35-4.35"/>
  </symbol>
  
  <!-- 右箭头 -->
  <symbol id="chevron-right" viewBox="0 0 24 24" fill="none" stroke="currentColor" stroke-width="1.5">
    <polyline points="9,18 15,12 9,6"/>
  </symbol>
  
  <!-- 左箭头 -->
  <symbol id="chevron-left" viewBox="0 0 24 24" fill="none" stroke="currentColor" stroke-width="1.5">
    <polyline points="15,18 9,12 15,6"/>
  </symbol>

  <!-- 真正的箭头 -->
  <symbol id="arrow-left" viewBox="0 0 24 24" fill="none" stroke="currentColor" stroke-width="1.5">
    <line x1="19" y1="12" x2="5" y2="12"/>
    <polyline points="12,19 5,12 12,5"/>
  </symbol>

  <symbol id="arrow-right" viewBox="0 0 24 24" fill="none" stroke="currentColor" stroke-width="1.5">
    <line x1="5" y1="12" x2="19" y2="12"/>
    <polyline points="12,5 19,12 12,19"/>
  </symbol>

  <symbol id="arrow-up" viewBox="0 0 24 24" fill="none" stroke="currentColor" stroke-width="1.5">
    <line x1="12" y1="19" x2="12" y2="5"/>
    <polyline points="5,12 12,5 19,12"/>
  </symbol>

  <symbol id="arrow-down" viewBox="0 0 24 24" fill="none" stroke="currentColor" stroke-width="1.5">
    <line x1="12" y1="5" x2="12" y2="19"/>
    <polyline points="19,12 12,19 5,12"/>
  </symbol>
  
  <!-- 设置 -->
  <symbol id="settings" viewBox="0 0 24 24" fill="none" stroke="currentColor" stroke-width="1.5">
    <circle cx="12" cy="12" r="3"/>
    <path d="M19.4 15a1.65 1.65 0 0 0 .33 1.82l.06.06a2 2 0 0 1 0 2.83 2 2 0 0 1-2.83 0l-.06-.06a1.65 1.65 0 0 0-1.82-.33 1.65 1.65 0 0 0-1 1.51V21a2 2 0 0 1-2 2 2 2 0 0 1-2-2v-.09A1.65 1.65 0 0 0 9 19.4a1.65 1.65 0 0 0-1.82.33l-.06.06a2 2 0 0 1-2.83 0 2 2 0 0 1 0-2.83l.06-.06a1.65 1.65 0 0 0 .33-1.82 1.65 1.65 0 0 0-1.51-1H3a2 2 0 0 1-2-2 2 2 0 0 1 2-2h.09A1.65 1.65 0 0 0 4.6 9a1.65 1.65 0 0 0-.33-1.82l-.06-.06a2 2 0 0 1 0-2.83 2 2 0 0 1 2.83 0l.06.06a1.65 1.65 0 0 0 1.82.33H9a1.65 1.65 0 0 0 1-1.51V3a2 2 0 0 1 2-2 2 2 0 0 1 2 2v.09a1.65 1.65 0 0 0 1 1.51 1.65 1.65 0 0 0 1.82-.33l.06-.06a2 2 0 0 1 2.83 0 2 2 0 0 1 0 2.83l-.06.06a1.65 1.65 0 0 0-.33 1.82V9a1.65 1.65 0 0 0 1.51 1H21a2 2 0 0 1 2 2 2 2 0 0 1-2 2h-.09a1.65 1.65 0 0 0-1.51 1z"/>
  </symbol>
  
  <!-- 铃铛 -->
  <symbol id="bell" viewBox="0 0 24 24" fill="none" stroke="currentColor" stroke-width="1.5">
    <path d="M18 8A6 6 0 0 0 6 8c0 7-3 9-3 9h18s-3-2-3-9"/>
    <path d="M13.73 21a2 2 0 0 1-3.46 0"/>
  </symbol>

  <!-- 电话 -->
  <symbol id="phone" viewBox="0 0 24 24" fill="none" stroke="currentColor" stroke-width="1.5">
    <path d="M22 16.92v3a2 2 0 0 1-2.18 2 19.79 19.79 0 0 1-8.63-3.07 19.5 19.5 0 0 1-6-6 19.79 19.79 0 0 1-3.07-8.67A2 2 0 0 1 4.11 2h3a2 2 0 0 1 2 1.72 12.84 12.84 0 0 0 .7 2.81 2 2 0 0 1-.45 2.11L8.09 9.91a16 16 0 0 0 6 6l1.27-1.27a2 2 0 0 1 2.11-.45 12.84 12.84 0 0 0 2.81.7A2 2 0 0 1 22 16.92z"/>
  </symbol>

  <!-- 视频摄像头 -->
  <symbol id="video-camera" viewBox="0 0 24 24" fill="none" stroke="currentColor" stroke-width="1.5">
    <polygon points="23,7 16,12 23,17"/>
    <rect x="1" y="5" width="15" height="14" rx="2" ry="2"/>
  </symbol>

  <!-- X关闭 -->
  <symbol id="x-mark" viewBox="0 0 24 24" fill="none" stroke="currentColor" stroke-width="1.5">
    <line x1="18" y1="6" x2="6" y2="18"/>
    <line x1="6" y1="6" x2="18" y2="18"/>
  </symbol>

  <!-- 勾选 -->
  <symbol id="check" viewBox="0 0 24 24" fill="none" stroke="currentColor" stroke-width="1.5">
    <polyline points="20,6 9,17 4,12"/>
  </symbol>

  <!-- 省略号 -->
  <symbol id="ellipsis-horizontal" viewBox="0 0 24 24" fill="none" stroke="currentColor" stroke-width="1.5">
    <circle cx="12" cy="12" r="1"/>
    <circle cx="19" cy="12" r="1"/>
    <circle cx="5" cy="12" r="1"/>
  </symbol>

  <!-- 心形 -->
  <symbol id="heart" viewBox="0 0 24 24" fill="none" stroke="currentColor" stroke-width="1.5">
    <path d="M20.84 4.61a5.5 5.5 0 0 0-7.78 0L12 5.67l-1.06-1.06a5.5 5.5 0 0 0-7.78 7.78l1.06 1.06L12 21.23l7.78-7.78 1.06-1.06a5.5 5.5 0 0 0 0-7.78z"/>
  </symbol>

  <!-- 相机 -->
  <symbol id="camera" viewBox="0 0 24 24" fill="none" stroke="currentColor" stroke-width="1.5">
    <path d="M23 19a2 2 0 0 1-2 2H3a2 2 0 0 1-2-2V8a2 2 0 0 1 2-2h4l2-3h6l2 3h4a2 2 0 0 1 2 2z"/>
    <circle cx="12" cy="13" r="4"/>
  </symbol>

  <!-- 麦克风 -->
  <symbol id="microphone" viewBox="0 0 24 24" fill="none" stroke="currentColor" stroke-width="1.5">
    <path d="M12 1a3 3 0 0 0-3 3v8a3 3 0 0 0 6 0V4a3 3 0 0 0-3-3z"/>
    <path d="M19 10v2a7 7 0 0 1-14 0v-2"/>
    <line x1="12" y1="19" x2="12" y2="23"/>
    <line x1="8" y1="23" x2="16" y2="23"/>
  </symbol>

  <!-- 上箭头 -->
  <symbol id="chevron-up" viewBox="0 0 24 24" fill="none" stroke="currentColor" stroke-width="1.5">
    <polyline points="18,15 12,9 6,15"/>
  </symbol>

  <!-- 下箭头 -->
  <symbol id="chevron-down" viewBox="0 0 24 24" fill="none" stroke="currentColor" stroke-width="1.5">
    <polyline points="6,9 12,15 18,9"/>
  </symbol>

  <!-- 二维码 -->
  <symbol id="qr-code" viewBox="0 0 24 24" fill="none" stroke="currentColor" stroke-width="1.5">
    <rect x="3" y="3" width="5" height="5"/>
    <rect x="3" y="16" width="5" height="5"/>
    <rect x="16" y="3" width="5" height="5"/>
    <rect x="11" y="11" width="3" height="3"/>
    <rect x="16" y="16" width="2" height="2"/>
    <rect x="19" y="16" width="2" height="2"/>
    <rect x="16" y="19" width="2" height="2"/>
    <rect x="19" y="19" width="2" height="2"/>
  </symbol>

  <!-- 信用卡 -->
  <symbol id="credit-card" viewBox="0 0 24 24" fill="none" stroke="currentColor" stroke-width="1.5">
    <rect x="1" y="4" width="22" height="16" rx="2" ry="2"/>
    <line x1="1" y1="10" x2="23" y2="10"/>
  </symbol>

  <!-- 垃圾桶 -->
  <symbol id="trash" viewBox="0 0 24 24" fill="none" stroke="currentColor" stroke-width="1.5">
    <polyline points="3,6 5,6 21,6"/>
    <path d="M19 6v14a2 2 0 0 1-2 2H7a2 2 0 0 1-2-2V6m3 0V4a2 2 0 0 1 2-2h4a2 2 0 0 1 2 2v2"/>
    <line x1="10" y1="11" x2="10" y2="17"/>
    <line x1="14" y1="11" x2="14" y2="17"/>
  </symbol>

  <!-- 电池 -->
  <symbol id="battery" viewBox="0 0 24 24" fill="none" stroke="currentColor" stroke-width="1.5">
    <rect x="1" y="6" width="18" height="12" rx="2" ry="2"/>
    <line x1="23" y1="13" x2="23" y2="11"/>
  </symbol>

  <!-- WiFi -->
  <symbol id="wifi" viewBox="0 0 24 24" fill="none" stroke="currentColor" stroke-width="1.5">
    <path d="M1 11.5a11.5 11.5 0 0 1 22 0"/>
    <path d="M5 12.5a7.5 7.5 0 0 1 14 0"/>
    <path d="M8.5 14a4 4 0 0 1 7 0"/>
    <circle cx="12" cy="17" r="1"/>
  </symbol>

  <!-- 信号 -->
  <symbol id="signal" viewBox="0 0 24 24" fill="none" stroke="currentColor" stroke-width="1.5">
    <path d="M2 20h.01"/>
    <path d="M7 20v-4"/>
    <path d="M12 20v-8"/>
    <path d="M17 20V8"/>
    <path d="M22 4v16"/>
  </symbol>

  <!-- 登出 -->
  <symbol id="arrow-right-on-rectangle" viewBox="0 0 24 24" fill="none" stroke="currentColor" stroke-width="1.5">
    <path d="M15 3h4a2 2 0 0 1 2 2v14a2 2 0 0 1-2 2h-4"/>
    <polyline points="10,17 15,12 10,7"/>
    <line x1="15" y1="12" x2="3" y2="12"/>
  </symbol>

  <!-- 用户添加 -->
  <symbol id="user-plus" viewBox="0 0 24 24" fill="none" stroke="currentColor" stroke-width="1.5">
    <path d="M16 21v-2a4 4 0 0 0-4-4H6a4 4 0 0 0-4 4v2"/>
    <circle cx="9" cy="7" r="4"/>
    <line x1="19" y1="8" x2="19" y2="14"/>
    <line x1="22" y1="11" x2="16" y2="11"/>
  </symbol>

  <!-- 更多图标 -->
  <symbol id="arrow-path" viewBox="0 0 24 24" fill="none" stroke="currentColor" stroke-width="1.5"><path d="M4 4v5h.582m15.356 2A8.001 8.001 0 0 0 4.582 9m0 0H9m11 11v-5h-.581m0 0a8.003 8.003 0 0 1-15.357-2m15.357 2H15"/></symbol>
  <symbol id="arrow-down-tray" viewBox="0 0 24 24" fill="none" stroke="currentColor" stroke-width="1.5"><path d="M3 16.5v2.25A2.25 2.25 0 0 0 5.25 21h13.5A2.25 2.25 0 0 0 21 18.75V16.5M16.5 12L12 16.5m0 0L7.5 12m4.5 4.5V3"/></symbol>
  <symbol id="heart-solid" viewBox="0 0 24 24" fill="currentColor"><path d="M20.84 4.61a5.5 5.5 0 0 0-7.78 0L12 5.67l-1.06-1.06a5.5 5.5 0 0 0-7.78 7.78l1.06 1.06L12 21.23l7.78-7.78 1.06-1.06a5.5 5.5 0 0 0 0-7.78z"/></symbol>
  <symbol id="microphone-slash" viewBox="0 0 24 24" fill="none" stroke="currentColor" stroke-width="1.5"><path d="M12 1a3 3 0 0 0-3 3v8a3 3 0 0 0 6 0V4a3 3 0 0 0-3-3z"/><path d="M19 10v2a7 7 0 0 1-14 0v-2"/><line x1="12" y1="19" x2="12" y2="23"/><line x1="8" y1="23" x2="16" y2="23"/><line x1="1" y1="1" x2="23" y2="23"/></symbol>
  <symbol id="video-camera-slash" viewBox="0 0 24 24" fill="none" stroke="currentColor" stroke-width="1.5"><path d="M16 10l4.553-2.276A1 1 0 0 1 22 8.618v6.764a1 1 0 0 1-1.447.894L16 14M6 10h8a2 2 0 0 1 2 2v4a2 2 0 0 1-2 2H6a2 2 0 0 1-2-2v-4a2 2 0 0 1 2-2z"/><line x1="1" y1="1" x2="23" y2="23"/></symbol>
  <symbol id="face-smile" viewBox="0 0 24 24" fill="none" stroke="currentColor" stroke-width="1.5"><circle cx="12" cy="12" r="10"/><path d="M8 14s1.5 2 4 2 4-2 4-2"/><line x1="9" y1="9" x2="9.01" y2="9"/><line x1="15" y1="9" x2="15.01" y2="9"/></symbol>
  <symbol id="finger-print" viewBox="0 0 24 24" fill="none" stroke="currentColor" stroke-width="1.5"><path d="M12 10a2 2 0 0 0-2 2c0 1.02-.1 2.51-.26 4"/><path d="M14 13.12c0 2.38 0 6.38-1 8.88"/><path d="M17.29 21.02c.12-.6.43-2.3.5-3.02"/><path d="M6.18 15.26a10.9 10.9 0 0 1 .67-2.4c.45-1.18.9-2.26 1.45-3.36"/><path d="M9 9a3 3 0 0 1 6 0c0 1-1 2-1 2s1 1 1 2"/><path d="M9.75 16.25c.75 2.25 2.25 3.75 2.25 3.75s1.5-1.5 2.25-3.75"/></symbol>
  <symbol id="edit" viewBox="0 0 24 24" fill="none" stroke="currentColor" stroke-width="1.5"><path d="M11 4H4a2 2 0 0 0-2 2v14a2 2 0 0 0 2 2h14a2 2 0 0 0 2-2v-7"/><path d="M18.5 2.5a2.121 2.121 0 0 1 3 3L12 15l-4 1 1-4 9.5-9.5z"/></symbol>
  <symbol id="block" viewBox="0 0 24 24" fill="none" stroke="currentColor" stroke-width="1.5"><circle cx="12" cy="12" r="10"/><line x1="4.93" y1="4.93" x2="19.07" y2="19.07"/></symbol>
  <symbol id="person-remove" viewBox="0 0 24 24" fill="none" stroke="currentColor" stroke-width="1.5"><path d="M16 21v-2a4 4 0 0 0-4-4H6a4 4 0 0 0-4 4v2"/><circle cx="9" cy="7" r="4"/><line x1="22" y1="11" x2="16" y2="11"/></symbol>
  <symbol id="chat-bubble-left-right" viewBox="0 0 24 24" fill="none" stroke="currentColor" stroke-width="1.5"><path d="M21 15a2 2 0 0 1-2 2H7l-4 4V5a2 2 0 0 1 2-2h14a2 2 0 0 1 2 2z"/><path d="M14 8H8m6 4H8"/></symbol>
  <symbol id="folder" viewBox="0 0 24 24" fill="none" stroke="currentColor" stroke-width="1.5"><path d="M22 19a2 2 0 0 1-2 2H4a2 2 0 0 1-2-2V5a2 2 0 0 1 2-2h5l2 3h9a2 2 0 0 1 2 2z"/></symbol>
  <symbol id="document" viewBox="0 0 24 24" fill="none" stroke="currentColor" stroke-width="1.5"><path d="M14 2H6a2 2 0 0 0-2 2v16a2 2 0 0 0 2 2h12a2 2 0 0 0 2-2V8z"/><polyline points="14,2 14,8 20,8"/><line x1="16" y1="13" x2="8" y2="13"/><line x1="16" y1="17" x2="8" y2="17"/><polyline points="10,9 9,9 8,9"/></symbol>
  <symbol id="photo" viewBox="0 0 24 24" fill="none" stroke="currentColor" stroke-width="1.5"><rect x="3" y="3" width="18" height="18" rx="2" ry="2"/><circle cx="8.5" cy="8.5" r="1.5"/><polyline points="21,15 16,10 5,21"/></symbol>
  <symbol id="play" viewBox="0 0 24 24" fill="none" stroke="currentColor" stroke-width="1.5"><polygon points="5,3 19,12 5,21"/></symbol>
  <symbol id="pause" viewBox="0 0 24 24" fill="none" stroke="currentColor" stroke-width="1.5"><rect x="6" y="4" width="4" height="16"/><rect x="14" y="4" width="4" height="16"/></symbol>
  <symbol id="stop" viewBox="0 0 24 24" fill="none" stroke="currentColor" stroke-width="1.5"><rect x="3" y="3" width="18" height="18" rx="2" ry="2"/></symbol>
  <symbol id="volume-up" viewBox="0 0 24 24" fill="none" stroke="currentColor" stroke-width="1.5"><polygon points="11,5 6,9 2,9 2,15 6,15 11,19"/><path d="M19.07 4.93a10 10 0 0 1 0 14.14M15.54 8.46a5 5 0 0 1 0 7.07"/></symbol>
  <symbol id="volume-off" viewBox="0 0 24 24" fill="none" stroke="currentColor" stroke-width="1.5"><polygon points="11,5 6,9 2,9 2,15 6,15 11,19"/><line x1="23" y1="9" x2="17" y2="15"/><line x1="17" y1="9" x2="23" y2="15"/></symbol>
  <symbol id="share" viewBox="0 0 24 24" fill="none" stroke="currentColor" stroke-width="1.5"><circle cx="18" cy="5" r="3"/><circle cx="6" cy="12" r="3"/><circle cx="18" cy="19" r="3"/><line x1="8.59" y1="13.51" x2="15.42" y2="17.49"/><line x1="15.41" y1="6.51" x2="8.59" y2="10.49"/></symbol>
  <symbol id="download" viewBox="0 0 24 24" fill="none" stroke="currentColor" stroke-width="1.5"><path d="M21 15v4a2 2 0 0 1-2 2H5a2 2 0 0 1-2-2v-4"/><polyline points="7,10 12,15 17,10"/><line x1="12" y1="15" x2="12" y2="3"/></symbol>
  <symbol id="upload" viewBox="0 0 24 24" fill="none" stroke="currentColor" stroke-width="1.5"><path d="M21 15v4a2 2 0 0 1-2 2H5a2 2 0 0 1-2-2v-4"/><polyline points="17,8 12,3 7,8"/><line x1="12" y1="3" x2="12" y2="15"/></symbol>
  <symbol id="link" viewBox="0 0 24 24" fill="none" stroke="currentColor" stroke-width="1.5"><path d="M10 13a5 5 0 0 0 7.54.54l3-3a5 5 0 0 0-7.07-7.07l-1.72 1.72"/><path d="M14 11a5 5 0 0 0-7.54-.54l-3 3a5 5 0 0 0 7.07 7.07l1.72-1.72"/></symbol>
  <symbol id="star" viewBox="0 0 24 24" fill="none" stroke="currentColor" stroke-width="1.5"><polygon points="12,2 15.09,8.26 22,9.27 17,14.14 18.18,21.02 12,17.77 5.82,21.02 7,14.14 2,9.27 8.91,8.26"/></symbol>
  <symbol id="star-solid" viewBox="0 0 24 24" fill="currentColor"><polygon points="12,2 15.09,8.26 22,9.27 17,14.14 18.18,21.02 12,17.77 5.82,21.02 7,14.14 2,9.27 8.91,8.26"/></symbol>
  <symbol id="bookmark" viewBox="0 0 24 24" fill="none" stroke="currentColor" stroke-width="1.5"><path d="M19 21l-7-5-7 5V5a2 2 0 0 1 2-2h10a2 2 0 0 1 2 2z"/></symbol>
  <symbol id="flag" viewBox="0 0 24 24" fill="none" stroke="currentColor" stroke-width="1.5"><path d="M4 15s1-1 4-1 5 2 8 2 4-1 4-1V3s-1 1-4 1-5-2-8-2-4 1-4 1z"/><line x1="4" y1="22" x2="4" y2="15"/></symbol>
  <symbol id="map-pin" viewBox="0 0 24 24" fill="none" stroke="currentColor" stroke-width="1.5"><path d="M21 10c0 7-9 13-9 13s-9-6-9-13a9 9 0 0 1 18 0z"/><circle cx="12" cy="10" r="3"/></symbol>
  <symbol id="calendar" viewBox="0 0 24 24" fill="none" stroke="currentColor" stroke-width="1.5"><rect x="3" y="4" width="18" height="18" rx="2" ry="2"/><line x1="16" y1="2" x2="16" y2="6"/><line x1="8" y1="2" x2="8" y2="6"/><line x1="3" y1="10" x2="21" y2="10"/></symbol>
  <symbol id="clock" viewBox="0 0 24 24" fill="none" stroke="currentColor" stroke-width="1.5"><circle cx="12" cy="12" r="10"/><polyline points="12,6 12,12 16,14"/></symbol>
  <symbol id="globe" viewBox="0 0 24 24" fill="none" stroke="currentColor" stroke-width="1.5"><circle cx="12" cy="12" r="10"/><line x1="2" y1="12" x2="22" y2="12"/><path d="M12 2a15.3 15.3 0 0 1 4 10 15.3 15.3 0 0 1-4 10 15.3 15.3 0 0 1-4-10 15.3 15.3 0 0 1 4-10z"/></symbol>
  <symbol id="lock" viewBox="0 0 24 24" fill="none" stroke="currentColor" stroke-width="1.5"><rect x="3" y="11" width="18" height="11" rx="2" ry="2"/><circle cx="12" cy="16" r="1"/><path d="M7 11V7a5 5 0 0 1 10 0v4"/></symbol>
  <symbol id="unlock" viewBox="0 0 24 24" fill="none" stroke="currentColor" stroke-width="1.5"><rect x="3" y="11" width="18" height="11" rx="2" ry="2"/><circle cx="12" cy="16" r="1"/><path d="M7 11V7a5 5 0 0 1 9.9-1"/></symbol>
  <symbol id="eye" viewBox="0 0 24 24" fill="none" stroke="currentColor" stroke-width="1.5"><path d="M1 12s4-8 11-8 11 8 11 8-4 8-11 8-11-8-11-8z"/><circle cx="12" cy="12" r="3"/></symbol>
  <symbol id="eye-slash" viewBox="0 0 24 24" fill="none" stroke="currentColor" stroke-width="1.5"><path d="M17.94 17.94A10.07 10.07 0 0 1 12 20c-7 0-11-8-11-8a18.45 18.45 0 0 1 5.06-5.94M9.9 4.24A9.12 9.12 0 0 1 12 4c7 0 11 8 11 8a18.5 18.5 0 0 1-2.16 3.19m-6.72-1.07a3 3 0 1 1-4.24-4.24"/><line x1="1" y1="1" x2="23" y2="23"/></symbol>
  <symbol id="shield" viewBox="0 0 24 24" fill="none" stroke="currentColor" stroke-width="1.5"><path d="M12 22s8-4 8-10V5l-8-3-8 3v7c0 6 8 10 8 10z"/></symbol>
  <symbol id="gift" viewBox="0 0 24 24" fill="none" stroke="currentColor" stroke-width="1.5"><polyline points="20,12 20,22 4,22 4,12"/><rect x="2" y="7" width="20" height="5"/><line x1="12" y1="22" x2="12" y2="7"/><path d="M12 7H7.5a2.5 2.5 0 0 1 0-5C11 2 12 7 12 7z"/><path d="M12 7h4.5a2.5 2.5 0 0 0 0-5C13 2 12 7 12 7z"/></symbol>
  <symbol id="shopping-cart" viewBox="0 0 24 24" fill="none" stroke="currentColor" stroke-width="1.5"><circle cx="9" cy="21" r="1"/><circle cx="20" cy="21" r="1"/><path d="M1 1h4l2.68 13.39a2 2 0 0 0 2 1.61h9.72a2 2 0 0 0 2-1.61L23 6H6"/></symbol>
  <symbol id="wallet" viewBox="0 0 24 24" fill="none" stroke="currentColor" stroke-width="1.5"><path d="M21 12V7H5a2 2 0 0 1 0-4h14v4"/><path d="M3 5v14a2 2 0 0 0 2 2h16v-5"/><circle cx="18" cy="12" r="2"/></symbol>
  <symbol id="banknotes" viewBox="0 0 24 24" fill="none" stroke="currentColor" stroke-width="1.5"><rect x="2" y="3" width="20" height="14" rx="2" ry="2"/><line x1="8" y1="21" x2="16" y2="21"/><line x1="12" y1="17" x2="12" y2="21"/></symbol>

  <!-- 批量添加缺失的heroicons -->
  <symbol id="academic-cap" viewBox="0 0 24 24" fill="none" stroke="currentColor" stroke-width="1.5"><path d="M12 14l9-5-9-5-9 5 9 5z"/><path d="M12 14l6.16-3.422a12.083 12.083 0 01.665 6.479A11.952 11.952 0 0012 20.055a11.952 11.952 0 00-6.824-2.998 12.078 12.078 0 01.665-6.479L12 14z"/><path stroke-linecap="round" stroke-linejoin="round" d="M12 14l9-5-9-5-9 5 9 5zm0 0l6.16-3.422a12.083 12.083 0 01.665 6.479A11.952 11.952 0 0012 20.055a11.952 11.952 0 00-6.824-2.998 12.078 12.078 0 01.665-6.479L12 14z"/></symbol>
  <symbol id="adjustments-horizontal" viewBox="0 0 24 24" fill="none" stroke="currentColor" stroke-width="1.5"><path d="M6 12h.01M6 12h.01m0 0v6a1 1 0 001 1h10a1 1 0 001-1v-6m0 0h.01M18 12h.01m0 0V6a1 1 0 00-1-1H7a1 1 0 00-1 1v6m12 0h.01"/></symbol>
  <symbol id="archive-box" viewBox="0 0 24 24" fill="none" stroke="currentColor" stroke-width="1.5"><rect x="3" y="4" width="18" height="18" rx="2" ry="2"/><line x1="3" y1="9" x2="21" y2="9"/><line x1="9" y1="14" x2="15" y2="14"/></symbol>
  <symbol id="arrow-trending-up" viewBox="0 0 24 24" fill="none" stroke="currentColor" stroke-width="1.5"><path d="M2.25 18L9 11.25l4.306 4.307a11.95 11.95 0 015.814-5.519l2.74-1.22m0 0l-5.94-2.28m5.94 2.28l-2.28 5.941"/></symbol>
  <symbol id="arrow-trending-down" viewBox="0 0 24 24" fill="none" stroke="currentColor" stroke-width="1.5"><path d="M2.25 6L9 12.75l4.286-4.286a11.948 11.948 0 014.306 6.43l.776 2.898m0 0l3.182-5.511m-3.182 5.511l-5.511-3.182"/></symbol>
  <symbol id="arrows-pointing-in" viewBox="0 0 24 24" fill="none" stroke="currentColor" stroke-width="1.5"><path d="M9 9l6 6m0-6l-6 6m12-3a9 9 0 11-18 0 9 9 0 0118 0z"/></symbol>
  <symbol id="arrows-pointing-out" viewBox="0 0 24 24" fill="none" stroke="currentColor" stroke-width="1.5"><path d="M15 9l6-6m0 0l-6-6m6 6H9a6 6 0 000 12h6"/></symbol>
  <symbol id="at-symbol" viewBox="0 0 24 24" fill="none" stroke="currentColor" stroke-width="1.5"><circle cx="12" cy="12" r="4"/><path d="M16 8v5a3 3 0 006 0v-1a10 10 0 10-3.92 7.94"/></symbol>
  <symbol id="backspace" viewBox="0 0 24 24" fill="none" stroke="currentColor" stroke-width="1.5"><path d="M22 3H7c-.69 0-1.316.34-1.707.707L1.586 7.414A2 2 0 001.586 9.586L5.293 13.293c.391.367.917.707 1.707.707H22a2 2 0 002-2V5a2 2 0 00-2-2z"/><line x1="11" y1="7" x2="17" y2="13"/><line x1="17" y1="7" x2="11" y2="13"/></symbol>
  <symbol id="bars-3" viewBox="0 0 24 24" fill="none" stroke="currentColor" stroke-width="1.5"><path d="M3 12h18m-9 6h9m-9-12h9"/></symbol>
  <symbol id="bolt" viewBox="0 0 24 24" fill="none" stroke="currentColor" stroke-width="1.5"><polygon points="13,2 3,14 12,14 11,22 21,10 12,10"/></symbol>
  <symbol id="bolt-slash" viewBox="0 0 24 24" fill="none" stroke="currentColor" stroke-width="1.5"><polygon points="13,2 3,14 12,14 11,22 21,10 12,10"/><line x1="1" y1="1" x2="23" y2="23"/></symbol>
  <symbol id="bookmark-solid" viewBox="0 0 24 24" fill="currentColor"><path d="M19 21l-7-5-7 5V5a2 2 0 0 1 2-2h10a2 2 0 0 1 2 2z"/></symbol>
  <symbol id="building-office" viewBox="0 0 24 24" fill="none" stroke="currentColor" stroke-width="1.5"><path d="M3 21h18M5 21V7l8-4v18M19 21V11l-6-4"/><path d="M9 9v.01M9 12v.01M9 15v.01M13 9v.01M13 12v.01M13 15v.01"/></symbol>
  <symbol id="calculator" viewBox="0 0 24 24" fill="none" stroke="currentColor" stroke-width="1.5"><rect x="4" y="2" width="16" height="20" rx="2"/><rect x="8" y="6" width="8" height="2"/><rect x="8" y="10" width="2" height="2"/><rect x="12" y="10" width="2" height="2"/><rect x="8" y="14" width="2" height="2"/><rect x="12" y="14" width="2" height="2"/><rect x="8" y="18" width="6" height="2"/></symbol>
  <symbol id="chart-bar" viewBox="0 0 24 24" fill="none" stroke="currentColor" stroke-width="1.5"><line x1="12" y1="20" x2="12" y2="10"/><line x1="18" y1="20" x2="18" y2="4"/><line x1="6" y1="20" x2="6" y2="16"/></symbol>
  <symbol id="chart-pie" viewBox="0 0 24 24" fill="none" stroke="currentColor" stroke-width="1.5"><path d="M21.21 15.89A10 10 0 118 2.83"/><path d="M22 12A10 10 0 0012 2v10z"/></symbol>
  <symbol id="check-circle" viewBox="0 0 24 24" fill="none" stroke="currentColor" stroke-width="1.5"><path d="M22 11.08V12a10 10 0 11-5.93-9.14"/><polyline points="22,4 12,14.01 9,11.01"/></symbol>
  <symbol id="clipboard" viewBox="0 0 24 24" fill="none" stroke="currentColor" stroke-width="1.5"><path d="M16 4h2a2 2 0 012 2v14a2 2 0 01-2 2H6a2 2 0 01-2-2V6a2 2 0 012-2h2"/><rect x="8" y="2" width="8" height="4" rx="1" ry="1"/></symbol>
  <symbol id="cloud" viewBox="0 0 24 24" fill="none" stroke="currentColor" stroke-width="1.5"><path d="M18 10h-1.26A8 8 0 109 20h9a5 5 0 000-10z"/></symbol>
  <symbol id="code-bracket" viewBox="0 0 24 24" fill="none" stroke="currentColor" stroke-width="1.5"><polyline points="16,18 22,12 16,6"/><polyline points="8,6 2,12 8,18"/></symbol>
  <symbol id="computer-desktop" viewBox="0 0 24 24" fill="none" stroke="currentColor" stroke-width="1.5"><rect x="2" y="3" width="20" height="14" rx="2" ry="2"/><line x1="8" y1="21" x2="16" y2="21"/><line x1="12" y1="17" x2="12" y2="21"/></symbol>
  <symbol id="cpu-chip" viewBox="0 0 24 24" fill="none" stroke="currentColor" stroke-width="1.5"><rect x="4" y="4" width="16" height="16" rx="2"/><rect x="9" y="9" width="6" height="6"/><line x1="9" y1="1" x2="9" y2="4"/><line x1="15" y1="1" x2="15" y2="4"/><line x1="9" y1="20" x2="9" y2="23"/><line x1="15" y1="20" x2="15" y2="23"/><line x1="20" y1="9" x2="23" y2="9"/><line x1="20" y1="14" x2="23" y2="14"/><line x1="1" y1="9" x2="4" y2="9"/><line x1="1" y1="14" x2="4" y2="14"/></symbol>
  <symbol id="currency-dollar" viewBox="0 0 24 24" fill="none" stroke="currentColor" stroke-width="1.5"><line x1="12" y1="1" x2="12" y2="23"/><path d="M17 5H9.5a3.5 3.5 0 000 7h5a3.5 3.5 0 010 7H6"/></symbol>
  <symbol id="device-phone-mobile" viewBox="0 0 24 24" fill="none" stroke="currentColor" stroke-width="1.5"><rect x="5" y="2" width="14" height="20" rx="2" ry="2"/><line x1="12" y1="18" x2="12.01" y2="18"/></symbol>
  <symbol id="device-tablet" viewBox="0 0 24 24" fill="none" stroke="currentColor" stroke-width="1.5"><rect x="4" y="2" width="16" height="20" rx="2" ry="2"/><line x1="12" y1="18" x2="12.01" y2="18"/></symbol>
  <symbol id="exclamation-triangle" viewBox="0 0 24 24" fill="none" stroke="currentColor" stroke-width="1.5"><path d="M10.29 3.86L1.82 18a2 2 0 001.71 3h16.94a2 2 0 001.71-3L13.71 3.86a2 2 0 00-3.42 0z"/><line x1="12" y1="9" x2="12" y2="13"/><line x1="12" y1="17" x2="12.01" y2="17"/></symbol>
  <symbol id="fire" viewBox="0 0 24 24" fill="none" stroke="currentColor" stroke-width="1.5"><path d="M8.5 14.5A2.5 2.5 0 0011 12c0-1.38-.5-2-1-3-1.072-2.143-.224-4.054 2-6 .5 2.5 2 4.9 4 6.5 2 1.6 3 3.5 3 5.5a7 7 0 11-14 0c0-1.153.433-2.294 1-3a2.5 2.5 0 002.5 2.5z"/></symbol>
  <symbol id="identification" viewBox="0 0 24 24" fill="none" stroke="currentColor" stroke-width="1.5"><rect x="1" y="3" width="22" height="18" rx="2" ry="2"/><circle cx="8" cy="9" r="2"/><path d="M16 21v-2a4 4 0 00-8 0v2"/><line x1="16" y1="7" x2="20" y2="7"/><line x1="16" y1="11" x2="20" y2="11"/><line x1="16" y1="15" x2="20" y2="15"/></symbol>
  <symbol id="inbox" viewBox="0 0 24 24" fill="none" stroke="currentColor" stroke-width="1.5"><polyline points="22,12 18,12 16,20 8,20 6,12 2,12"/><path d="M5.45 5.11L2 12v6a2 2 0 002 2h16a2 2 0 002-2v-6l-3.45-6.89A2 2 0 0016.76 4H7.24a2 2 0 00-1.79 1.11z"/></symbol>
  <symbol id="information-circle" viewBox="0 0 24 24" fill="none" stroke="currentColor" stroke-width="1.5"><circle cx="12" cy="12" r="10"/><line x1="12" y1="16" x2="12" y2="12"/><line x1="12" y1="8" x2="12.01" y2="8"/></symbol>
  <symbol id="italic" viewBox="0 0 24 24" fill="none" stroke="currentColor" stroke-width="1.5"><line x1="19" y1="4" x2="10" y2="4"/><line x1="14" y1="20" x2="5" y2="20"/><line x1="15" y1="4" x2="9" y2="20"/></symbol>
  <symbol id="key" viewBox="0 0 24 24" fill="none" stroke="currentColor" stroke-width="1.5"><circle cx="8" cy="8" r="6"/><path d="M18.09 10.37a6 6 0 11-10.37 0"/><line x1="12" y1="2" x2="12" y2="8"/></symbol>
  <symbol id="language" viewBox="0 0 24 24" fill="none" stroke="currentColor" stroke-width="1.5"><circle cx="12" cy="12" r="10"/><line x1="2" y1="12" x2="22" y2="12"/><path d="M12 2a15.3 15.3 0 014 10 15.3 15.3 0 01-4 10 15.3 15.3 0 01-4-10 15.3 15.3 0 014-10z"/></symbol>
  <symbol id="leaf" viewBox="0 0 24 24" fill="none" stroke="currentColor" stroke-width="1.5"><path d="M11 20A7 7 0 019.8 6.1C15.5 5 17 4.48 19 2c1 2 2 4.18 2 8 0 5.5-4.78 10-10 10z"/><path d="M2 21c0-3 1.85-5.36 5.08-6C9.5 14.52 12 13 13 12"/></symbol>
  <symbol id="light-bulb" viewBox="0 0 24 24" fill="none" stroke="currentColor" stroke-width="1.5"><path d="M9 21h6"/><path d="M12 17c0 .55-.45 1-1 1h-2c-.55 0-1-.45-1-1v-2c0-.55.45-1 1-1h2c.55 0 1 .45 1 1v2z"/><path d="M12 3a6 6 0 00-6 6c0 4 3 7 3 7h6s3-3 3-7a6 6 0 00-6-6z"/></symbol>
  <symbol id="list-bullet" viewBox="0 0 24 24" fill="none" stroke="currentColor" stroke-width="1.5"><line x1="8" y1="6" x2="21" y2="6"/><line x1="8" y1="12" x2="21" y2="12"/><line x1="8" y1="18" x2="21" y2="18"/><line x1="3" y1="6" x2="3.01" y2="6"/><line x1="3" y1="12" x2="3.01" y2="12"/><line x1="3" y1="18" x2="3.01" y2="18"/></symbol>
  <symbol id="lock-closed" viewBox="0 0 24 24" fill="none" stroke="currentColor" stroke-width="1.5"><rect x="3" y="11" width="18" height="11" rx="2" ry="2"/><circle cx="12" cy="16" r="1"/><path d="M7 11V7a5 5 0 0110 0v4"/></symbol>
  <symbol id="magnifying-glass-plus" viewBox="0 0 24 24" fill="none" stroke="currentColor" stroke-width="1.5"><circle cx="11" cy="11" r="8"/><path d="M21 21l-4.35-4.35"/><line x1="11" y1="8" x2="11" y2="14"/><line x1="8" y1="11" x2="14" y2="11"/></symbol>
  <symbol id="map" viewBox="0 0 24 24" fill="none" stroke="currentColor" stroke-width="1.5"><polygon points="1,6 1,22 8,18 16,22 23,18 23,2 16,6 8,2"/><line x1="8" y1="2" x2="8" y2="18"/><line x1="16" y1="6" x2="16" y2="22"/></symbol>
  <symbol id="megaphone" viewBox="0 0 24 24" fill="none" stroke="currentColor" stroke-width="1.5"><path d="M3 11l18-5v12L3 14v-3z"/><path d="M11.6 16.8a3 3 0 11-5.8-1.6"/></symbol>
  <symbol id="minus" viewBox="0 0 24 24" fill="none" stroke="currentColor" stroke-width="1.5"><line x1="5" y1="12" x2="19" y2="12"/></symbol>
  <symbol id="minus-circle" viewBox="0 0 24 24" fill="none" stroke="currentColor" stroke-width="1.5"><circle cx="12" cy="12" r="10"/><line x1="8" y1="12" x2="16" y2="12"/></symbol>
  <symbol id="moon" viewBox="0 0 24 24" fill="none" stroke="currentColor" stroke-width="1.5"><path d="M21 12.79A9 9 0 1111.21 3 7 7 0 0021 12.79z"/></symbol>
  <symbol id="musical-note" viewBox="0 0 24 24" fill="none" stroke="currentColor" stroke-width="1.5"><path d="M9 18V5l12-2v13"/><circle cx="6" cy="18" r="3"/><circle cx="18" cy="16" r="3"/></symbol>
  <symbol id="navigation" viewBox="0 0 24 24" fill="none" stroke="currentColor" stroke-width="1.5"><polygon points="3,11 22,2 13,21 11,13"/></symbol>
  <symbol id="no-symbol" viewBox="0 0 24 24" fill="none" stroke="currentColor" stroke-width="1.5"><circle cx="12" cy="12" r="10"/><line x1="4.93" y1="4.93" x2="19.07" y2="19.07"/></symbol>
  <symbol id="paper-airplane" viewBox="0 0 24 24" fill="none" stroke="currentColor" stroke-width="1.5"><path d="M3 3l18 9-18 9 4-9-4-9z"/><path d="M11 12h10"/></symbol>
  <symbol id="paper-clip" viewBox="0 0 24 24" fill="none" stroke="currentColor" stroke-width="1.5"><path d="M21.44 11.05l-9.19 9.19a6 6 0 01-8.49-8.49l9.19-9.19a4 4 0 015.66 5.66L9.64 16.2a2 2 0 01-2.83-2.83l8.49-8.49"/></symbol>
  <symbol id="pencil" viewBox="0 0 24 24" fill="none" stroke="currentColor" stroke-width="1.5"><path d="M12 20h9"/><path d="M16.5 3.5a2.121 2.121 0 013 3L7 19l-4 1 1-4L16.5 3.5z"/></symbol>
  <symbol id="pencil-square" viewBox="0 0 24 24" fill="none" stroke="currentColor" stroke-width="1.5"><path d="M11 4H4a2 2 0 00-2 2v14a2 2 0 002 2h14a2 2 0 002-2v-7"/><path d="M18.5 2.5a2.121 2.121 0 013 3L12 15l-4 1 1-4 9.5-9.5z"/></symbol>
  <symbol id="phone-slash" viewBox="0 0 24 24" fill="none" stroke="currentColor" stroke-width="1.5"><path d="M22 16.92v3a2 2 0 01-2.18 2 19.79 19.79 0 01-8.63-3.07 19.5 19.5 0 01-6-6 19.79 19.79 0 01-3.07-8.67A2 2 0 014.11 2h3a2 2 0 012 1.72 12.84 12.84 0 00.7 2.81 2 2 0 01-.45 2.11L8.09 9.91a16 16 0 006 6l1.27-1.27a2 2 0 012.11-.45 12.84 12.84 0 002.81.7A2 2 0 0122 16.92z"/><line x1="1" y1="1" x2="23" y2="23"/></symbol>
  <symbol id="phone-x-mark" viewBox="0 0 24 24" fill="none" stroke="currentColor" stroke-width="1.5"><path d="M22 16.92v3a2 2 0 01-2.18 2 19.79 19.79 0 01-8.63-3.07 19.5 19.5 0 01-6-6 19.79 19.79 0 01-3.07-8.67A2 2 0 014.11 2h3a2 2 0 012 1.72 12.84 12.84 0 00.7 2.81 2 2 0 01-.45 2.11L8.09 9.91a16 16 0 006 6l1.27-1.27a2 2 0 012.11-.45 12.84 12.84 0 002.81.7A2 2 0 0122 16.92z"/><line x1="18" y1="6" x2="6" y2="18"/><line x1="6" y1="6" x2="18" y2="18"/></symbol>
  <symbol id="play-solid" viewBox="0 0 24 24" fill="currentColor"><polygon points="5,3 19,12 5,21"/></symbol>
  <symbol id="plus-circle" viewBox="0 0 24 24" fill="none" stroke="currentColor" stroke-width="1.5"><circle cx="12" cy="12" r="10"/><line x1="12" y1="8" x2="12" y2="16"/><line x1="8" y1="12" x2="16" y2="12"/></symbol>
  <symbol id="puzzle-piece" viewBox="0 0 24 24" fill="none" stroke="currentColor" stroke-width="1.5"><path d="M19.439 7.85c-.049.322.059.648.289.878l1.568 1.568c.47.47.706 1.087.706 1.704s-.235 1.234-.706 1.704l-1.611 1.611a.98.98 0 01-.837.276c-.47-.07-.802-.48-.968-.925a2.501 2.501 0 103.273-3.273c.446.166.855.497.925.968a.979.979 0 01-.276.837l-1.61 1.610a2.404 2.404 0 01-1.705.707 2.402 2.402 0 01-1.704-.706z"/></symbol>
  <symbol id="question-mark-circle" viewBox="0 0 24 24" fill="none" stroke="currentColor" stroke-width="1.5"><circle cx="12" cy="12" r="10"/><path d="M9.09 9a3 3 0 015.83 1c0 2-3 3-3 3"/><line x1="12" y1="17" x2="12.01" y2="17"/></symbol>
  <symbol id="rectangle-stack" viewBox="0 0 24 24" fill="none" stroke="currentColor" stroke-width="1.5"><rect x="3" y="3" width="18" height="18" rx="2" ry="2"/><rect x="6" y="6" width="12" height="12" rx="2" ry="2"/><rect x="9" y="9" width="6" height="6" rx="2" ry="2"/></symbol>
  <symbol id="scale" viewBox="0 0 24 24" fill="none" stroke="currentColor" stroke-width="1.5"><path d="M16 11V3a2 2 0 00-2-2h-4a2 2 0 00-2 2v8M5 21h14l-1-10H6l-1 10z"/></symbol>
  <symbol id="scissors" viewBox="0 0 24 24" fill="none" stroke="currentColor" stroke-width="1.5"><circle cx="6" cy="6" r="3"/><circle cx="6" cy="18" r="3"/><line x1="20" y1="4" x2="8.12" y2="15.88"/><line x1="14.47" y1="14.48" x2="20" y2="20"/><line x1="8.12" y1="8.12" x2="12" y2="12"/></symbol>
  <symbol id="server" viewBox="0 0 24 24" fill="none" stroke="currentColor" stroke-width="1.5"><rect x="2" y="2" width="20" height="8" rx="2" ry="2"/><rect x="2" y="14" width="20" height="8" rx="2" ry="2"/><line x1="6" y1="6" x2="6.01" y2="6"/><line x1="6" y1="18" x2="6.01" y2="18"/></symbol>
  <symbol id="shield-check" viewBox="0 0 24 24" fill="none" stroke="currentColor" stroke-width="1.5"><path d="M12 22s8-4 8-10V5l-8-3-8 3v7c0 6 8 10 8 10z"/><polyline points="9,12 11,14 15,10"/></symbol>
  <symbol id="shield-exclamation" viewBox="0 0 24 24" fill="none" stroke="currentColor" stroke-width="1.5"><path d="M12 22s8-4 8-10V5l-8-3-8 3v7c0 6 8 10 8 10z"/><line x1="12" y1="8" x2="12" y2="12"/><line x1="12" y1="16" x2="12.01" y2="16"/></symbol>
  <symbol id="shopping-bag" viewBox="0 0 24 24" fill="none" stroke="currentColor" stroke-width="1.5"><path d="M6 2L3 6v14a2 2 0 002 2h14a2 2 0 002-2V6l-3-4z"/><line x1="3" y1="6" x2="21" y2="6"/><path d="M16 10a4 4 0 01-8 0"/></symbol>
  <symbol id="sparkles" viewBox="0 0 24 24" fill="none" stroke="currentColor" stroke-width="1.5"><path d="M9.937 15.5A2 2 0 008.5 14.063l-6.135-1.582a.5.5 0 010-.962L8.5 9.936A2 2 0 009.937 8.5l1.582-6.135a.5.5 0 01.962 0L14.063 8.5A2 2 0 0015.5 9.937l6.135 1.582a.5.5 0 010 .962L15.5 14.063a2 2 0 00-1.437 1.437l-1.582 6.135a.5.5 0 01-.962 0L9.937 15.5z"/></symbol>
  <symbol id="speaker-wave" viewBox="0 0 24 24" fill="none" stroke="currentColor" stroke-width="1.5"><polygon points="11,5 6,9 2,9 2,15 6,15 11,19"/><path d="M19.07 4.93a10 10 0 010 14.14M15.54 8.46a5 5 0 010 7.07"/></symbol>
  <symbol id="speaker-x-mark" viewBox="0 0 24 24" fill="none" stroke="currentColor" stroke-width="1.5"><polygon points="11,5 6,9 2,9 2,15 6,15 11,19"/><line x1="23" y1="9" x2="17" y2="15"/><line x1="17" y1="9" x2="23" y2="15"/></symbol>
  <symbol id="squares-2x2" viewBox="0 0 24 24" fill="none" stroke="currentColor" stroke-width="1.5"><rect x="3" y="3" width="8" height="8"/><rect x="13" y="3" width="8" height="8"/><rect x="3" y="13" width="8" height="8"/><rect x="13" y="13" width="8" height="8"/></symbol>
  <symbol id="sun" viewBox="0 0 24 24" fill="none" stroke="currentColor" stroke-width="1.5"><circle cx="12" cy="12" r="5"/><line x1="12" y1="1" x2="12" y2="3"/><line x1="12" y1="21" x2="12" y2="23"/><line x1="4.22" y1="4.22" x2="5.64" y2="5.64"/><line x1="18.36" y1="18.36" x2="19.78" y2="19.78"/><line x1="1" y1="12" x2="3" y2="12"/><line x1="21" y1="12" x2="23" y2="12"/><line x1="4.22" y1="19.78" x2="5.64" y2="18.36"/><line x1="18.36" y1="5.64" x2="19.78" y2="4.22"/></symbol>
  <symbol id="swatch" viewBox="0 0 24 24" fill="none" stroke="currentColor" stroke-width="1.5"><path d="M18 3a3 3 0 00-3 3v12a3 3 0 003 3 3 3 0 003-3 3 3 0 00-3-3H6a3 3 0 00-3 3 3 3 0 003 3 3 3 0 003-3V6a3 3 0 00-3-3 3 3 0 00-3 3 3 3 0 003 3h12a3 3 0 003-3 3 3 0 00-3-3z"/></symbol>
  <symbol id="table-cells" viewBox="0 0 24 24" fill="none" stroke="currentColor" stroke-width="1.5"><rect x="3" y="3" width="18" height="18" rx="2" ry="2"/><line x1="9" y1="3" x2="9" y2="21"/><line x1="15" y1="3" x2="15" y2="21"/><line x1="3" y1="9" x2="21" y2="9"/><line x1="3" y1="15" x2="21" y2="15"/></symbol>
  <symbol id="tag" viewBox="0 0 24 24" fill="none" stroke="currentColor" stroke-width="1.5"><path d="M20.59 13.41l-7.17 7.17a2 2 0 01-2.83 0L2 12V2h10l8.59 8.59a2 2 0 010 2.82z"/><line x1="7" y1="7" x2="7.01" y2="7"/></symbol>
  <symbol id="ticket" viewBox="0 0 24 24" fill="none" stroke="currentColor" stroke-width="1.5"><path d="M2 9a3 3 0 010-6h20a3 3 0 010 6v6a3 3 0 010 6H2a3 3 0 010-6V9z"/><polyline points="13,5 13,7 13,11 13,13"/></symbol>
  <symbol id="trending-up" viewBox="0 0 24 24" fill="none" stroke="currentColor" stroke-width="1.5"><polyline points="23,6 13.5,15.5 8.5,10.5 1,18"/><polyline points="17,6 23,6 23,12"/></symbol>
  <symbol id="trophy" viewBox="0 0 24 24" fill="none" stroke="currentColor" stroke-width="1.5"><path d="M6 9H4.5a2.5 2.5 0 010-5H6"/><path d="M18 9h1.5a2.5 2.5 0 000-5H18"/><path d="M4 22h16"/><path d="M10 14.66V17c0 .55.45 1 1 1h2c.55 0 1-.45 1-1v-2.34c1.07-.98 2-2.24 2-3.66V5H8v6c0 1.42.93 2.68 2 3.66z"/></symbol>
  <symbol id="truck" viewBox="0 0 24 24" fill="none" stroke="currentColor" stroke-width="1.5"><rect x="1" y="3" width="15" height="13"/><polygon points="16,8 20,8 23,11 23,16 16,16"/><circle cx="5.5" cy="18.5" r="2.5"/><circle cx="18.5" cy="18.5" r="2.5"/></symbol>
  <symbol id="tv" viewBox="0 0 24 24" fill="none" stroke="currentColor" stroke-width="1.5"><rect x="2" y="7" width="20" height="15" rx="2" ry="2"/><polyline points="17,2 12,7 7,2"/></symbol>
  <symbol id="user-circle" viewBox="0 0 24 24" fill="none" stroke="currentColor" stroke-width="1.5"><circle cx="12" cy="12" r="10"/><circle cx="12" cy="8" r="3"/><path d="M6.168 18.849A4 4 0 0110 16h4a4 4 0 013.834 2.855"/></symbol>
  <symbol id="user-minus" viewBox="0 0 24 24" fill="none" stroke="currentColor" stroke-width="1.5"><path d="M16 21v-2a4 4 0 00-4-4H6a4 4 0 00-4 4v2"/><circle cx="9" cy="7" r="4"/><line x1="22" y1="11" x2="16" y2="11"/></symbol>
  <symbol id="viewfinder-circle" viewBox="0 0 24 24" fill="none" stroke="currentColor" stroke-width="1.5"><circle cx="12" cy="12" r="10"/><circle cx="12" cy="12" r="6"/><circle cx="12" cy="12" r="2"/></symbol>
  <symbol id="wrench-screwdriver" viewBox="0 0 24 24" fill="none" stroke="currentColor" stroke-width="1.5"><path d="M14.7 6.3a1 1 0 000 1.4l1.6 1.6a1 1 0 001.4 0l3.77-3.77a6 6 0 01-7.94 7.94l-6.91 6.91a2.12 2.12 0 01-3-3l6.91-6.91a6 6 0 017.94-7.94l-3.76 3.76z"/></symbol>
  <symbol id="x-circle" viewBox="0 0 24 24" fill="none" stroke="currentColor" stroke-width="1.5"><circle cx="12" cy="12" r="10"/><line x1="15" y1="9" x2="9" y2="15"/><line x1="9" y1="9" x2="15" y2="15"/></symbol>

  <!-- 常用功能图标 -->
  <symbol id="refresh" viewBox="0 0 24 24" fill="none" stroke="currentColor" stroke-width="1.5">
    <polyline points="23,4 23,10 17,10"/>
    <polyline points="1,20 1,14 7,14"/>
    <path d="M20.49 9A9 9 0 0 0 5.64 5.64L1 10m22 4l-4.64 4.36A9 9 0 0 1 3.51 15"/>
  </symbol>

  <symbol id="menu" viewBox="0 0 24 24" fill="none" stroke="currentColor" stroke-width="1.5">
    <line x1="3" y1="6" x2="21" y2="6"/>
    <line x1="3" y1="12" x2="21" y2="12"/>
    <line x1="3" y1="18" x2="21" y2="18"/>
  </symbol>

  <symbol id="close" viewBox="0 0 24 24" fill="none" stroke="currentColor" stroke-width="1.5">
    <line x1="18" y1="6" x2="6" y2="18"/>
    <line x1="6" y1="6" x2="18" y2="18"/>
  </symbol>

  <symbol id="back" viewBox="0 0 24 24" fill="none" stroke="currentColor" stroke-width="1.5">
    <path d="M19 12H5"/>
    <polyline points="12,19 5,12 12,5"/>
  </symbol>

  <symbol id="forward" viewBox="0 0 24 24" fill="none" stroke="currentColor" stroke-width="1.5">
    <path d="M5 12h14"/>
    <polyline points="12,5 19,12 12,19"/>
  </symbol>

  <symbol id="more-horizontal" viewBox="0 0 24 24" fill="none" stroke="currentColor" stroke-width="1.5">
    <circle cx="12" cy="12" r="1"/>
    <circle cx="19" cy="12" r="1"/>
    <circle cx="5" cy="12" r="1"/>
  </symbol>

  <symbol id="more-vertical" viewBox="0 0 24 24" fill="none" stroke="currentColor" stroke-width="1.5">
    <circle cx="12" cy="12" r="1"/>
    <circle cx="12" cy="5" r="1"/>
    <circle cx="12" cy="19" r="1"/>
  </symbol>

  <!-- 新增缺失的图标 -->
  <symbol id="cloud-sun" viewBox="0 0 24 24" fill="none" stroke="currentColor" stroke-width="1.5">
    <path d="M12 2v2"/>
    <path d="M4.93 4.93l1.41 1.41"/>
    <path d="M20 12h2"/>
    <path d="M19.07 4.93l-1.41 1.41"/>
    <path d="M15.947 12.65a4 4 0 00-5.925-4.128"/>
    <path d="M13 22H7a5 5 0 114.9-6H13a3 3 0 010 6z"/>
  </symbol>

  <symbol id="arrow-top-right-on-square" viewBox="0 0 24 24" fill="none" stroke="currentColor" stroke-width="1.5">
    <path d="M13.5 6H5.25A2.25 2.25 0 003 8.25v10.5A2.25 2.25 0 005.25 21h10.5A2.25 2.25 0 0018 18.75V10.5m-10.5 6L21 3m0 0h-5.25M21 3v5.25"/>
  </symbol>

  <symbol id="external-link" viewBox="0 0 24 24" fill="none" stroke="currentColor" stroke-width="1.5">
    <path d="M18 13v6a2 2 0 01-2 2H5a2 2 0 01-2-2V8a2 2 0 012-2h6"/>
    <polyline points="15,3 21,3 21,9"/>
    <line x1="10" y1="14" x2="21" y2="3"/>
  </symbol>

  <symbol id="document-text" viewBox="0 0 24 24" fill="none" stroke="currentColor" stroke-width="1.5">
    <path d="M14 2H6a2 2 0 0 0-2 2v16a2 2 0 0 0 2 2h12a2 2 0 0 0 2-2V8z"/>
    <polyline points="14,2 14,8 20,8"/>
    <line x1="16" y1="13" x2="8" y2="13"/>
    <line x1="16" y1="17" x2="8" y2="17"/>
    <polyline points="10,9 9,9 8,9"/>
  </symbol>

  <!-- 更多常用图标 -->
  <symbol id="gamepad" viewBox="0 0 24 24" fill="none" stroke="currentColor" stroke-width="1.5">
    <line x1="6" y1="12" x2="10" y2="12"/>
    <line x1="8" y1="10" x2="8" y2="14"/>
    <line x1="15" y1="13" x2="15.01" y2="13"/>
    <line x1="18" y1="11" x2="18.01" y2="11"/>
    <rect x="2" y="6" width="20" height="12" rx="2"/>
  </symbol>

  <symbol id="cube" viewBox="0 0 24 24" fill="none" stroke="currentColor" stroke-width="1.5">
    <path d="M21 16V8a2 2 0 0 0-1-1.73l-7-4a2 2 0 0 0-2 0l-7 4A2 2 0 0 0 3 8v8a2 2 0 0 0 1 1.73l7 4a2 2 0 0 0 2 0l7-4A2 2 0 0 0 21 16z"/>
    <polyline points="7.5,4.21 12,6.81 16.5,4.21"/>
    <polyline points="7.5,19.79 7.5,14.6 3,12"/>
    <polyline points="21,12 16.5,14.6 16.5,19.79"/>
  </symbol>

  <symbol id="robot" viewBox="0 0 24 24" fill="none" stroke="currentColor" stroke-width="1.5">
    <rect x="3" y="11" width="18" height="10" rx="2" ry="2"/>
    <circle cx="12" cy="5" r="2"/>
    <path d="M12 7v4"/>
    <line x1="8" y1="16" x2="8" y2="16"/>
    <line x1="16" y1="16" x2="16" y2="16"/>
  </symbol>

  <symbol id="briefcase" viewBox="0 0 24 24" fill="none" stroke="currentColor" stroke-width="1.5">
    <rect x="2" y="7" width="20" height="14" rx="2" ry="2"/>
    <path d="M16 21V5a2 2 0 0 0-2-2h-4a2 2 0 0 0-2 2v16"/>
  </symbol>

  <symbol id="ellipsis-vertical" viewBox="0 0 24 24" fill="none" stroke="currentColor" stroke-width="1.5">
    <circle cx="12" cy="12" r="1"/>
    <circle cx="12" cy="5" r="1"/>
    <circle cx="12" cy="19" r="1"/>
  </symbol>
</svg>
